<svg width="140" height="45" viewBox="0 0 140 45" fill="none" xmlns="http://www.w3.org/2000/svg">
<path d="M20.491 16.65V21.0857H31.1256C30.8013 23.5929 29.9583 25.3929 28.7263 26.6786C27.17 28.2214 24.7708 29.8929 20.491 29.8929C13.9417 29.8929 8.81893 24.6857 8.81893 18.1929C8.81893 11.7 13.9417 6.49286 20.491 6.49286C23.9926 6.49286 26.5864 7.84286 28.5318 9.64286L31.6443 6.55714C28.9857 3.98571 25.4841 2.05714 20.491 2.05714C11.4776 1.92857 3.95557 9.19286 3.95557 18.0643C3.95557 26.9357 11.4776 34.2 20.491 34.2C25.3544 34.2 28.9857 32.5929 31.8388 29.7C34.7569 26.8071 35.6647 22.6929 35.6647 19.4143C35.6647 18.3857 35.5998 17.4214 35.4053 16.65H20.491Z" fill="#4285F4"/>
<path d="M49.0227 13.05C43.1867 13.05 38.453 17.4214 38.453 23.4643C38.453 29.4429 43.1867 33.8786 49.0227 33.8786C54.8588 33.8786 59.5924 29.4429 59.5924 23.4643C59.5276 17.4214 54.7939 13.05 49.0227 13.05ZM49.0227 29.7643C45.8453 29.7643 43.057 27.1929 43.057 23.4643C43.057 19.7357 45.7805 17.1643 49.0227 17.1643C52.2001 17.1643 54.9884 19.7357 54.9884 23.4643C54.9236 27.1929 52.2001 29.7643 49.0227 29.7643Z" fill="#EA4335"/>
<path d="M100.704 15.3643H100.509C99.4719 14.1429 97.4618 13.05 94.9977 13.05C89.7452 13.05 85.1412 17.6143 85.1412 23.4643C85.1412 29.3143 89.7452 33.8786 94.9977 33.8786C97.5266 33.8786 99.4719 32.7857 100.509 31.5H100.704V32.9786C100.704 36.9643 98.5641 39.0857 95.0625 39.0857C92.2093 39.0857 90.4585 37.0929 89.7452 35.3571L85.7248 37.0286C86.892 39.7929 89.9398 43.2 95.0625 43.2C100.445 43.2 105.049 40.05 105.049 32.3357V13.5643H100.639V15.3643H100.704ZM95.3867 29.7643C92.2093 29.7643 89.7452 27.0643 89.7452 23.4643C89.7452 19.8 92.1445 17.1643 95.3867 17.1643C98.5641 17.1643 101.028 19.8643 101.028 23.5286C101.028 27.1286 98.5641 29.7643 95.3867 29.7643Z" fill="#4285F4"/>
<path d="M72.4965 13.05C66.6604 13.05 61.9268 17.4214 61.9268 23.4643C61.9268 29.4429 66.6604 33.8786 72.4965 33.8786C78.3325 33.8786 83.0662 29.4429 83.0662 23.4643C83.0662 17.4214 78.3325 13.05 72.4965 13.05ZM72.4965 29.7643C69.3191 29.7643 66.5307 27.1929 66.5307 23.4643C66.5307 19.7357 69.2542 17.1643 72.4965 17.1643C75.7387 17.1643 78.4622 19.7357 78.4622 23.4643C78.4622 27.1929 75.6739 29.7643 72.4965 29.7643Z" fill="#FBBC05"/>
<path d="M108.68 2.37857H113.219V33.8786H108.68V2.37857Z" fill="#34A853"/>
<path d="M127.29 29.7643C124.956 29.7643 123.27 28.7357 122.168 26.6143L136.239 20.8286L135.785 19.6714C134.942 17.3571 132.219 13.05 126.772 13.05C121.389 13.05 116.85 17.2929 116.85 23.4643C116.85 29.3143 121.325 33.8786 127.29 33.8786C132.089 33.8786 134.877 30.9857 136.044 29.25L132.478 26.8714C131.246 28.6071 129.625 29.7643 127.29 29.7643ZM126.966 16.9714C128.847 16.9714 130.403 17.9357 130.922 19.2857L121.454 23.1429C121.454 18.7714 124.567 16.9714 126.966 16.9714Z" fill="#EA4335"/>
</svg>
